<svg width="213" height="76" viewBox="0 0 213 76" fill="none" xmlns="http://www.w3.org/2000/svg">
<path d="M118.058 44.0019C118.058 49.544 116.205 54.7569 112.008 54.9215C107.049 55.1958 106.558 51.1353 106.558 45.3737V24.248H113.916L113.971 22.931H106.613L106.558 14.5905H101.599L101.653 22.931H97.9469L97.8923 24.248H101.599V44.4409C101.599 52.2327 105.032 56.1287 110.591 56.1287C117.295 56.1287 119.039 50.3122 119.039 44.0019L118.385 44.0568H118.058V44.0019Z" fill="#ED2224"/>
<path d="M64.5915 25.5649C63.2289 24.1931 61.5939 23.0408 58.9777 23.0408C54.1816 23.0408 51.5109 26.6623 50.4209 31.6008C50.3119 32.0947 50.3664 32.0947 50.3664 31.6008L50.1484 23.5346H45.0252V56.1835H50.1484V45.0994C50.2029 37.966 50.8569 26.6075 56.3616 25.7295C60.5038 25.1259 63.0654 28.967 64.646 32.369V25.5649H64.5915Z" fill="black"/>
<path d="M84.5393 56.1287C92.0606 55.6897 95.7667 50.422 97.7833 46.5261L96.8023 45.8127C95.7667 47.7881 92.6601 53.9338 86.4469 54.6471C80.0701 55.4153 75.0559 51.8486 72.7123 44.7153C71.6223 41.4778 71.4587 37.7465 72.2218 34.125H96.9658C96.0938 25.8941 88.7905 22.7116 83.5037 23.0408C76.4185 23.0957 66.6625 28.4731 66.9351 40.3255C67.2076 51.4645 76.3639 56.5128 84.5393 56.1287ZM80.6151 24.1931C86.7739 22.931 91.5701 26.9367 92.3331 32.8629H72.5488C73.7478 28.2536 76.3094 25.0711 80.6151 24.1931Z" fill="black"/>
<path d="M139.096 44.0019C139.096 49.544 137.243 54.7569 133.046 54.9215C128.087 55.1958 127.596 51.1353 127.596 45.3737V24.248H134.954L135.008 22.931H127.596V14.5905H122.636L122.691 22.931H118.985L118.93 24.248H122.636V44.4409C122.636 52.2327 126.07 56.1287 131.629 56.1287C138.333 56.1287 140.077 50.3122 140.077 44.0019L139.423 44.0568H139.096V44.0019Z" fill="#ED2224"/>
<path d="M148.307 23.6992H143.402V56.1835H148.307V23.6992Z" fill="black"/>
<path d="M145.854 20.6813C147.544 20.6813 148.852 19.3095 148.852 17.6633C148.852 16.0172 147.544 14.6454 145.854 14.6454C144.219 14.6454 142.857 16.0172 142.857 17.6633C142.857 19.3095 144.219 20.6813 145.854 20.6813Z" fill="black"/>
<path d="M156.809 56.1287H161.769V24.1382H166.02V23.5895H161.769V19.0351C161.769 12.7797 164.167 9.48738 168.582 9.48738C172.342 9.48738 174.522 12.0664 175.504 15.4136L175.94 15.1941C174.795 11.4628 172.724 8.77404 167.71 8.77404C162.423 8.77404 156.809 12.1212 156.809 20.2972V23.5895H153.103V24.1382H156.809V56.1287Z" fill="black"/>
<path d="M55.7076 63.8108C55.7076 62.3841 54.6721 61.122 52.6555 61.122H48.8403V68.9688H51.0749V66.3898H51.8379L53.6365 68.9139H56.0891V68.8041L54.0725 66.1703C55.3806 65.5667 55.7076 64.7436 55.7076 63.8108ZM52.71 64.7436H51.0749V62.8779H52.6555C53.255 62.8779 53.5275 63.3718 53.5275 63.8656C53.5275 64.3046 53.3095 64.7436 52.71 64.7436Z" fill="black"/>
<path d="M37.8854 67.2677C36.3593 67.2677 35.8143 66.1154 35.8143 65.0728C35.8143 64.0302 36.4138 62.8231 37.8854 62.8231C38.4304 62.8231 38.9754 62.9877 39.5204 63.4815L40.883 62.1097C40.011 61.2318 38.9754 60.8477 37.8854 60.8477C34.9423 60.8477 33.5797 62.9877 33.6342 65.0179C33.6342 67.158 34.8333 69.0785 37.8854 69.0785C39.0844 69.0785 40.12 68.7493 41.0465 67.8713L39.7385 66.3897C39.1389 67.0482 38.3759 67.2677 37.8854 67.2677Z" fill="black"/>
<path d="M66.2265 65.8959H69.9327V64.0851H66.2265V62.9328H70.1507V61.0672H64.0464V68.9139H70.3142V67.0482H66.2265V65.8959Z" fill="black"/>
<path d="M109.883 61.0672H107.703V68.9139H109.883V61.0672Z" fill="black"/>
<path d="M93.0416 62.9328H95.3307V68.9139H97.5108V62.9328H99.7999V61.0672H93.0416V62.9328Z" fill="black"/>
<path d="M135.989 65.8959H139.641V64.0851H135.989V62.9328H139.859V61.0672H133.809V68.9139H140.023V67.0482H135.989V65.8959Z" fill="black"/>
<path d="M122.854 63.4267L121.873 66.3349L120.892 63.4267L119.966 61.0672H117.513L120.783 68.9688H122.909L126.179 61.0672H123.726L122.854 63.4267Z" fill="black"/>
<path d="M81.0511 61.0672L77.563 68.9139H79.9066L80.3971 67.5969H83.8853L84.3758 68.9139H86.7194L83.2312 61.0672H81.0511ZM81.1601 65.7862L82.1412 63.2621L83.1222 65.7862H81.1601Z" fill="black"/>
<path d="M197.686 10.8592H200.248V17.6084H201.665V10.8592H204.226V9.59711H197.686V10.8592Z" fill="black"/>
<path d="M211.42 9.59711L208.913 13.2187L206.406 9.65199L206.352 9.59711H204.826V17.6084H206.188V11.792L208.695 15.3038H209.077L211.584 11.792V17.5536H211.693V17.6084H213.001V9.59711H211.42Z" fill="black"/>
<path d="M195.669 23.4798H194.525L184.66 48.5014H184.551L174.522 23.4798H169.563L182.371 55.9641C178.392 63.3718 171.143 63.2072 169.999 62.1097C169.999 63.8108 169.999 66.8287 169.999 66.8287C175.177 68.6395 180.191 65.7313 184.442 52.8363C186.513 60.7928 183.624 68.5298 177.139 71.9867C170.326 75.6632 161.769 73.6878 157.191 67.3775C157.082 67.1031 156.973 66.8287 156.918 66.5544C156.591 65.4569 156.428 62.8231 157.3 61.7805C157.518 61.561 158.008 60.9574 157.627 60.4636C157.3 60.0246 156.646 60.2441 156.373 60.3538C155.828 60.6282 155.447 61.0672 155.229 61.5061C155.011 60.6282 154.629 59.7502 153.866 59.0369C152.395 57.6651 150.596 56.9518 149.015 57.1712C148.743 57.2261 148.47 57.3359 148.361 57.5553C148.307 57.6651 148.252 57.8297 148.252 57.9395C148.252 58.0492 148.252 58.2138 148.307 58.3236C148.361 58.543 148.579 58.7625 148.797 58.8723C150.378 59.8051 151.468 61.3415 152.34 62.8231C153.43 64.5241 154.411 66.0605 155.61 67.7616C155.828 68.0359 156.21 68.5298 156.373 68.6944C159.589 72.8098 164.658 75.279 169.835 75.279C169.89 75.279 169.944 75.279 169.999 75.279C172.724 75.2242 175.395 74.5657 177.847 73.2488C185.423 69.1882 188.584 59.5307 185.259 50.3671L185.314 50.2025L185.368 50.0927L195.669 23.4798Z" fill="black"/>
<path d="M40.9375 23.0957C40.9375 13.7125 32.7076 9.54224 20.2811 9.54224H12.2148V35.2773C7.58212 34.3993 5.02051 31.2716 3.76696 28.8024C0.442324 22.4921 1.09635 13.9869 3.71246 9.37763C7.1461 3.12221 14.9944 0.817575 20.6627 1.80527C20.9352 1.91502 21.2077 2.02476 21.4257 2.18938C22.4612 2.79297 24.4233 4.49401 24.4778 5.81094C24.4778 6.0853 24.5323 6.85351 25.1318 6.96325C25.6224 7.01813 26.0039 6.4694 26.1129 6.14017C26.2764 5.53658 26.2219 4.98786 26.0584 4.49401C26.8214 4.98786 27.6934 5.31709 28.729 5.26222C30.7456 5.20735 32.5441 4.43914 33.4707 3.17708C33.6342 2.95759 33.6887 2.68323 33.6342 2.46374C33.6342 2.29912 33.5252 2.18938 33.4707 2.07963C33.4162 1.96989 33.3072 1.86015 33.1982 1.80527C32.9802 1.69553 32.7076 1.69553 32.4896 1.7504C30.6911 2.24425 28.838 1.91502 27.2029 1.47604C25.3498 1.03706 23.5513 0.652959 21.3712 0.268854C21.0987 0.213982 20.4991 0.15911 20.1721 0.15911C14.3404 -0.663972 6.21956 1.64066 2.3499 8.60942C-0.429712 13.5479 -1.13824 22.7116 2.4044 29.5157C4.52999 33.5214 7.85463 36.0455 12.1058 36.7588H12.2148V56.0738H17.1745V36.7588H20.2811C32.7076 36.7588 40.9375 32.4788 40.9375 23.0957ZM20.2811 35.3321H17.1745V10.7494H20.2811C31.6176 10.7494 35.9778 15.2489 35.9778 23.0957C35.9778 30.9424 31.6176 35.3321 20.2811 35.3321Z" fill="black"/>
</svg>
